<mxfile host="app.diagrams.net" agent="Mozilla/5.0 (Windows NT 10.0; Win64; x64) AppleWebKit/537.36 (KHTML, like Gecko) Chrome/130.0.0.0 Safari/537.36 Edg/130.0.0.0" version="24.8.4">
  <diagram name="第 1 页" id="IeWUHVZT3d7oXAff9Olv">
    <mxGraphModel dx="2345" dy="1810" grid="1" gridSize="10" guides="1" tooltips="1" connect="1" arrows="1" fold="1" page="1" pageScale="1" pageWidth="827" pageHeight="1169" math="0" shadow="0">
      <root>
        <mxCell id="0" />
        <mxCell id="1" parent="0" />
        <mxCell id="Yf_knB-bpZ2W4WyWqhMS-1" value="&lt;b&gt;User: Actor&lt;/b&gt;" style="shape=umlActor;verticalLabelPosition=bottom;verticalAlign=top;html=1;" vertex="1" parent="1">
          <mxGeometry x="88" y="110" width="30" height="60" as="geometry" />
        </mxCell>
        <mxCell id="Yf_knB-bpZ2W4WyWqhMS-2" value="" style="shape=umlBoundary;whiteSpace=wrap;html=1;" vertex="1" parent="1">
          <mxGeometry x="295" y="109.5" width="60" height="50" as="geometry" />
        </mxCell>
        <mxCell id="Yf_knB-bpZ2W4WyWqhMS-5" value="&lt;div style=&quot;text-align: center;&quot;&gt;&lt;span style=&quot;font-weight: normal;&quot;&gt;&amp;lt;&amp;lt;boundary&amp;gt;&amp;gt;&lt;/span&gt;&lt;/div&gt;&lt;span style=&quot;color: rgb(0, 0, 0); font-family: Helvetica; font-style: normal; font-variant-ligatures: normal; font-variant-caps: normal; letter-spacing: normal; orphans: 2; text-align: center; text-indent: 0px; text-transform: none; widows: 2; word-spacing: 0px; -webkit-text-stroke-width: 0px; white-space: normal; text-decoration-thickness: initial; text-decoration-style: initial; text-decoration-color: initial; float: none; font-size: 12px; display: inline !important;&quot;&gt;&lt;font style=&quot;font-size: 12px;&quot;&gt;TutorialSearchPage&lt;/font&gt;&lt;/span&gt;" style="text;whiteSpace=wrap;html=1;fontStyle=1;fontSize=12;" vertex="1" parent="1">
          <mxGeometry x="270" y="157" width="110" height="20" as="geometry" />
        </mxCell>
        <mxCell id="Yf_knB-bpZ2W4WyWqhMS-7" value="&lt;div style=&quot;text-align: center;&quot;&gt;&lt;span style=&quot;color: rgba(0, 0, 0, 0); font-family: monospace; font-size: 0px; text-align: start; text-wrap-mode: nowrap;&quot;&gt;%3CmxGraphModel%3E%3Croot%3E%3CmxCell%20id%3D%220%22%2F%3E%3CmxCell%20id%3D%221%22%20parent%3D%220%22%2F%3E%3CmxCell%20id%3D%222%22%20value%3D%22%26lt%3Bspan%20style%3D%26quot%3Bcolor%3A%20rgb(0%2C%200%2C%200)%3B%20font-family%3A%20Helvetica%3B%20font-style%3A%20normal%3B%20font-variant-ligatures%3A%20normal%3B%20font-variant-caps%3A%20normal%3B%20letter-spacing%3A%20normal%3B%20orphans%3A%202%3B%20text-align%3A%20center%3B%20text-indent%3A%200px%3B%20text-transform%3A%20none%3B%20widows%3A%202%3B%20word-spacing%3A%200px%3B%20-webkit-text-stroke-width%3A%200px%3B%20white-space%3A%20normal%3B%20text-decoration-thickness%3A%20initial%3B%20text-decoration-style%3A%20initial%3B%20text-decoration-color%3A%20initial%3B%20float%3A%20none%3B%20display%3A%20inline%20!important%3B%26quot%3B%26gt%3B%26lt%3Bfont%20style%3D%26quot%3Bfont-size%3A%208px%3B%26quot%3B%26gt%3BTutorialSearchPage%26lt%3B%2Ffont%26gt%3B%26lt%3B%2Fspan%26gt%3B%22%20style%3D%22text%3BwhiteSpace%3Dwrap%3Bhtml%3D1%3BfontStyle%3D1%22%20vertex%3D%221%22%20parent%3D%221%22%3E%3CmxGeometry%20x%3D%22176%22%20y%3D%22361%22%20width%3D%22110%22%20height%3D%2220%22%20as%3D%22geometry%22%2F%3E%3C%2FmxCell%3E%3C%2Froot%3E%3C%2FmxGraphModel%3E&lt;/span&gt;&lt;/div&gt;" style="text;whiteSpace=wrap;html=1;" vertex="1" parent="1">
          <mxGeometry x="390" y="175" width="110" height="50" as="geometry" />
        </mxCell>
        <mxCell id="Yf_knB-bpZ2W4WyWqhMS-8" value="&lt;div&gt;&lt;span style=&quot;color: rgb(0, 0, 0); font-family: Helvetica; font-style: normal; font-variant-ligatures: normal; font-variant-caps: normal; letter-spacing: normal; orphans: 2; text-align: center; text-indent: 0px; text-transform: none; widows: 2; word-spacing: 0px; -webkit-text-stroke-width: 0px; white-space: normal; text-decoration-thickness: initial; text-decoration-style: initial; text-decoration-color: initial; float: none; font-size: 12px; display: inline !important; font-weight: normal;&quot;&gt;&lt;font style=&quot;font-size: 12px;&quot;&gt;&amp;nbsp; &amp;nbsp; &amp;nbsp; &amp;lt;&amp;lt;control&amp;gt;&amp;gt;&lt;/font&gt;&lt;/span&gt;&lt;/div&gt;&lt;span style=&quot;color: rgb(0, 0, 0); font-family: Helvetica; font-style: normal; font-variant-ligatures: normal; font-variant-caps: normal; letter-spacing: normal; orphans: 2; text-align: center; text-indent: 0px; text-transform: none; widows: 2; word-spacing: 0px; -webkit-text-stroke-width: 0px; white-space: normal; text-decoration-thickness: initial; text-decoration-style: initial; text-decoration-color: initial; float: none; font-size: 12px; display: inline !important;&quot;&gt;&lt;font style=&quot;font-size: 12px;&quot;&gt;TutorialController&lt;/font&gt;&lt;/span&gt;" style="text;whiteSpace=wrap;html=1;fontStyle=1;fontSize=12;" vertex="1" parent="1">
          <mxGeometry x="499" y="158.75" width="110" height="20" as="geometry" />
        </mxCell>
        <mxCell id="Yf_knB-bpZ2W4WyWqhMS-9" value="" style="ellipse;shape=umlControl;whiteSpace=wrap;html=1;" vertex="1" parent="1">
          <mxGeometry x="525" y="106.25" width="50" height="55" as="geometry" />
        </mxCell>
        <mxCell id="Yf_knB-bpZ2W4WyWqhMS-10" value="" style="ellipse;shape=umlEntity;whiteSpace=wrap;html=1;" vertex="1" parent="1">
          <mxGeometry x="973" y="112" width="50" height="50" as="geometry" />
        </mxCell>
        <mxCell id="Yf_knB-bpZ2W4WyWqhMS-11" value="&lt;div style=&quot;text-align: center;&quot;&gt;&lt;span style=&quot;font-weight: normal;&quot;&gt;&amp;lt;&amp;lt;entity&amp;gt;&amp;gt;&lt;/span&gt;&lt;/div&gt;&lt;span style=&quot;color: rgb(0, 0, 0); font-family: Helvetica; font-style: normal; font-variant-ligatures: normal; font-variant-caps: normal; letter-spacing: normal; orphans: 2; text-align: center; text-indent: 0px; text-transform: none; widows: 2; word-spacing: 0px; -webkit-text-stroke-width: 0px; white-space: normal; text-decoration-thickness: initial; text-decoration-style: initial; text-decoration-color: initial; float: none; font-size: 12px; display: inline !important;&quot;&gt;&lt;font style=&quot;font-size: 12px;&quot;&gt;&amp;nbsp; Tutorial&lt;/font&gt;&lt;/span&gt;" style="text;whiteSpace=wrap;html=1;fontStyle=1;fontSize=12;" vertex="1" parent="1">
          <mxGeometry x="975" y="161" width="110" height="20" as="geometry" />
        </mxCell>
        <mxCell id="Yf_knB-bpZ2W4WyWqhMS-15" value="" style="endArrow=none;dashed=1;html=1;rounded=0;" edge="1" parent="1">
          <mxGeometry width="50" height="50" relative="1" as="geometry">
            <mxPoint x="100" y="700" as="sourcePoint" />
            <mxPoint x="102.8" y="192.5" as="targetPoint" />
          </mxGeometry>
        </mxCell>
        <mxCell id="Yf_knB-bpZ2W4WyWqhMS-18" value="" style="shape=umlBoundary;whiteSpace=wrap;html=1;" vertex="1" parent="1">
          <mxGeometry x="741" y="111" width="60" height="50" as="geometry" />
        </mxCell>
        <mxCell id="Yf_knB-bpZ2W4WyWqhMS-19" value="&lt;div style=&quot;text-align: center;&quot;&gt;&lt;span style=&quot;font-weight: normal;&quot;&gt;&amp;lt;&amp;lt;boundary&amp;gt;&amp;gt;&lt;/span&gt;&lt;/div&gt;&lt;span style=&quot;color: rgb(0, 0, 0); font-family: Helvetica; font-style: normal; font-variant-ligatures: normal; font-variant-caps: normal; letter-spacing: normal; orphans: 2; text-align: center; text-indent: 0px; text-transform: none; widows: 2; word-spacing: 0px; -webkit-text-stroke-width: 0px; white-space: normal; text-decoration-thickness: initial; text-decoration-style: initial; text-decoration-color: initial; float: none; font-size: 12px; display: inline !important;&quot;&gt;&lt;font style=&quot;font-size: 12px;&quot;&gt;TutorialContentPage&lt;/font&gt;&lt;/span&gt;" style="text;whiteSpace=wrap;html=1;fontStyle=1;fontSize=12;" vertex="1" parent="1">
          <mxGeometry x="716" y="158.5" width="110" height="20" as="geometry" />
        </mxCell>
        <mxCell id="Yf_knB-bpZ2W4WyWqhMS-20" value="" style="endArrow=classic;html=1;rounded=0;" edge="1" parent="1">
          <mxGeometry width="50" height="50" relative="1" as="geometry">
            <mxPoint x="103" y="220" as="sourcePoint" />
            <mxPoint x="320" y="220" as="targetPoint" />
          </mxGeometry>
        </mxCell>
        <mxCell id="Yf_knB-bpZ2W4WyWqhMS-21" value="&lt;div style=&quot;text-align: center;&quot;&gt;&lt;span style=&quot;font-weight: 400;&quot;&gt;Input the name of tutorial&lt;/span&gt;&lt;/div&gt;" style="text;whiteSpace=wrap;html=1;fontStyle=1;fontSize=12;" vertex="1" parent="1">
          <mxGeometry x="140" y="200" width="150" height="20" as="geometry" />
        </mxCell>
        <mxCell id="Yf_knB-bpZ2W4WyWqhMS-22" value="" style="endArrow=classic;html=1;rounded=0;" edge="1" parent="1">
          <mxGeometry width="50" height="50" relative="1" as="geometry">
            <mxPoint x="102.5" y="242" as="sourcePoint" />
            <mxPoint x="319.5" y="242" as="targetPoint" />
          </mxGeometry>
        </mxCell>
        <mxCell id="Yf_knB-bpZ2W4WyWqhMS-23" value="&lt;div style=&quot;text-align: center;&quot;&gt;&lt;span style=&quot;font-weight: 400;&quot;&gt;Click the search button&lt;/span&gt;&lt;/div&gt;" style="text;whiteSpace=wrap;html=1;fontStyle=1;fontSize=12;" vertex="1" parent="1">
          <mxGeometry x="139.5" y="222" width="150" height="20" as="geometry" />
        </mxCell>
        <mxCell id="Yf_knB-bpZ2W4WyWqhMS-24" value="" style="endArrow=none;dashed=1;html=1;rounded=0;" edge="1" parent="1">
          <mxGeometry width="50" height="50" relative="1" as="geometry">
            <mxPoint x="324.95" y="210" as="sourcePoint" />
            <mxPoint x="324.95" y="190" as="targetPoint" />
          </mxGeometry>
        </mxCell>
        <mxCell id="Yf_knB-bpZ2W4WyWqhMS-25" value="" style="rounded=0;whiteSpace=wrap;html=1;" vertex="1" parent="1">
          <mxGeometry x="320" y="210" width="10" height="220" as="geometry" />
        </mxCell>
        <mxCell id="Yf_knB-bpZ2W4WyWqhMS-26" value="" style="endArrow=classic;html=1;rounded=0;" edge="1" parent="1">
          <mxGeometry width="50" height="50" relative="1" as="geometry">
            <mxPoint x="330" y="251.73" as="sourcePoint" />
            <mxPoint x="547" y="251.73" as="targetPoint" />
          </mxGeometry>
        </mxCell>
        <mxCell id="Yf_knB-bpZ2W4WyWqhMS-27" value="&lt;div style=&quot;text-align: center;&quot;&gt;&lt;span style=&quot;font-weight: 400;&quot;&gt;Send the search request and info&lt;/span&gt;&lt;/div&gt;" style="text;whiteSpace=wrap;html=1;fontStyle=1;fontSize=12;" vertex="1" parent="1">
          <mxGeometry x="340" y="231.73" width="190" height="20" as="geometry" />
        </mxCell>
        <mxCell id="Yf_knB-bpZ2W4WyWqhMS-30" value="" style="endArrow=none;dashed=1;html=1;rounded=0;" edge="1" parent="1">
          <mxGeometry width="50" height="50" relative="1" as="geometry">
            <mxPoint x="552" y="250" as="sourcePoint" />
            <mxPoint x="551.94" y="191.73" as="targetPoint" />
          </mxGeometry>
        </mxCell>
        <mxCell id="Yf_knB-bpZ2W4WyWqhMS-31" value="" style="rounded=0;whiteSpace=wrap;html=1;" vertex="1" parent="1">
          <mxGeometry x="547" y="250.73" width="10" height="109.27" as="geometry" />
        </mxCell>
        <mxCell id="Yf_knB-bpZ2W4WyWqhMS-32" value="" style="endArrow=classic;html=1;rounded=0;edgeStyle=orthogonalEdgeStyle;" edge="1" parent="1">
          <mxGeometry width="50" height="50" relative="1" as="geometry">
            <mxPoint x="557.71" y="253.73" as="sourcePoint" />
            <mxPoint x="558" y="272" as="targetPoint" />
            <Array as="points">
              <mxPoint x="580" y="254" />
              <mxPoint x="580" y="272" />
            </Array>
          </mxGeometry>
        </mxCell>
        <mxCell id="Yf_knB-bpZ2W4WyWqhMS-33" value="&lt;div style=&quot;text-align: center;&quot;&gt;&lt;span style=&quot;font-weight: 400;&quot;&gt;Get user information&lt;/span&gt;&lt;span style=&quot;color: rgba(0, 0, 0, 0); font-family: monospace; font-size: 0px; font-weight: 400; text-wrap-mode: nowrap; background-color: initial; text-align: left;&quot;&gt;%3CmxGraphModel%3E%3Croot%3E%3CmxCell%20id%3D%220%22%2F%3E%3CmxCell%20id%3D%221%22%20parent%3D%220%22%2F%3E%3CmxCell%20id%3D%222%22%20value%3D%22%22%20style%3D%22endArrow%3Dclassic%3Bhtml%3D1%3Brounded%3D0%3B%22%20edge%3D%221%22%20parent%3D%221%22%3E%3CmxGeometry%20width%3D%2250%22%20height%3D%2250%22%20relative%3D%221%22%20as%3D%22geometry%22%3E%3CmxPoint%20x%3D%22330%22%20y%3D%22251.73%22%20as%3D%22sourcePoint%22%2F%3E%3CmxPoint%20x%3D%22547%22%20y%3D%22251.73%22%20as%3D%22targetPoint%22%2F%3E%3C%2FmxGeometry%3E%3C%2FmxCell%3E%3CmxCell%20id%3D%223%22%20value%3D%22%26lt%3Bdiv%20style%3D%26quot%3Btext-align%3A%20center%3B%26quot%3B%26gt%3B%26lt%3Bspan%20style%3D%26quot%3Bfont-weight%3A%20400%3B%26quot%3B%26gt%3BSend%20the%20search%20request%20and%20info%26lt%3B%2Fspan%26gt%3B%26lt%3B%2Fdiv%26gt%3B%22%20style%3D%22text%3BwhiteSpace%3Dwrap%3Bhtml%3D1%3BfontStyle%3D1%3BfontSize%3D12%3B%22%20vertex%3D%221%22%20parent%3D%221%22%3E%3CmxGeometry%20x%3D%22340%22%20y%3D%22231.73%22%20width%3D%22190%22%20height%3D%2220%22%20as%3D%22geometry%22%2F%3E%3C%2FmxCell%3E%3C%2Froot%3E%3C%2FmxGraphModel%3E&lt;/span&gt;&lt;/div&gt;" style="text;whiteSpace=wrap;html=1;fontStyle=1;fontSize=12;" vertex="1" parent="1">
          <mxGeometry x="580" y="248" width="190" height="20" as="geometry" />
        </mxCell>
        <mxCell id="Yf_knB-bpZ2W4WyWqhMS-35" value="&lt;div style=&quot;text-align: center;&quot;&gt;&lt;span style=&quot;font-weight: 400;&quot;&gt;Get tutorial informaton&lt;/span&gt;&lt;/div&gt;" style="text;whiteSpace=wrap;html=1;fontStyle=1;fontSize=12;" vertex="1" parent="1">
          <mxGeometry x="580" y="276" width="190" height="20" as="geometry" />
        </mxCell>
        <mxCell id="Yf_knB-bpZ2W4WyWqhMS-36" value="" style="endArrow=classic;html=1;rounded=0;entryX=-0.217;entryY=0.219;entryDx=0;entryDy=0;entryPerimeter=0;" edge="1" parent="1" target="Yf_knB-bpZ2W4WyWqhMS-41">
          <mxGeometry width="50" height="50" relative="1" as="geometry">
            <mxPoint x="557" y="342" as="sourcePoint" />
            <mxPoint x="774" y="342" as="targetPoint" />
          </mxGeometry>
        </mxCell>
        <mxCell id="Yf_knB-bpZ2W4WyWqhMS-37" value="&lt;div style=&quot;text-align: center;&quot;&gt;&lt;span style=&quot;font-weight: 400;&quot;&gt;Return the data&lt;/span&gt;&lt;/div&gt;" style="text;whiteSpace=wrap;html=1;fontStyle=1;fontSize=12;" vertex="1" parent="1">
          <mxGeometry x="589" y="322" width="121" height="20" as="geometry" />
        </mxCell>
        <mxCell id="Yf_knB-bpZ2W4WyWqhMS-40" value="" style="endArrow=none;dashed=1;html=1;rounded=0;exitX=0.5;exitY=0;exitDx=0;exitDy=0;" edge="1" parent="1" source="Yf_knB-bpZ2W4WyWqhMS-41">
          <mxGeometry width="50" height="50" relative="1" as="geometry">
            <mxPoint x="774.3299999999999" y="266.32" as="sourcePoint" />
            <mxPoint x="774" y="192.45999999999998" as="targetPoint" />
          </mxGeometry>
        </mxCell>
        <mxCell id="Yf_knB-bpZ2W4WyWqhMS-41" value="" style="rounded=0;whiteSpace=wrap;html=1;" vertex="1" parent="1">
          <mxGeometry x="769" y="330" width="10" height="60" as="geometry" />
        </mxCell>
        <mxCell id="Yf_knB-bpZ2W4WyWqhMS-43" value="" style="endArrow=classic;html=1;rounded=0;entryX=-0.139;entryY=-0.003;entryDx=0;entryDy=0;entryPerimeter=0;" edge="1" parent="1">
          <mxGeometry width="50" height="50" relative="1" as="geometry">
            <mxPoint x="781.39" y="379.78" as="sourcePoint" />
            <mxPoint x="993.0000000000001" y="379.5999999999999" as="targetPoint" />
          </mxGeometry>
        </mxCell>
        <mxCell id="Yf_knB-bpZ2W4WyWqhMS-44" value="&lt;div style=&quot;text-align: center;&quot;&gt;&lt;span style=&quot;font-weight: 400;&quot;&gt;Displays the tutorial&lt;/span&gt;&lt;/div&gt;" style="text;whiteSpace=wrap;html=1;fontStyle=1;fontSize=12;" vertex="1" parent="1">
          <mxGeometry x="820" y="359" width="120" height="20" as="geometry" />
        </mxCell>
        <mxCell id="Yf_knB-bpZ2W4WyWqhMS-45" value="" style="endArrow=none;dashed=1;html=1;rounded=0;exitX=0.5;exitY=0;exitDx=0;exitDy=0;" edge="1" parent="1" source="Yf_knB-bpZ2W4WyWqhMS-46">
          <mxGeometry width="50" height="50" relative="1" as="geometry">
            <mxPoint x="998" y="320" as="sourcePoint" />
            <mxPoint x="997.9" y="190" as="targetPoint" />
            <Array as="points">
              <mxPoint x="997.9" y="210" />
            </Array>
          </mxGeometry>
        </mxCell>
        <mxCell id="Yf_knB-bpZ2W4WyWqhMS-46" value="" style="rounded=0;whiteSpace=wrap;html=1;" vertex="1" parent="1">
          <mxGeometry x="993" y="359" width="10" height="60" as="geometry" />
        </mxCell>
        <mxCell id="Yf_knB-bpZ2W4WyWqhMS-47" value="" style="shape=umlBoundary;whiteSpace=wrap;html=1;" vertex="1" parent="1">
          <mxGeometry x="1170" y="113.5" width="60" height="50" as="geometry" />
        </mxCell>
        <mxCell id="Yf_knB-bpZ2W4WyWqhMS-48" value="&lt;div style=&quot;text-align: center;&quot;&gt;&lt;span style=&quot;font-weight: normal;&quot;&gt;&amp;lt;&amp;lt;boundary&amp;gt;&amp;gt;&lt;/span&gt;&lt;/div&gt;&lt;span style=&quot;color: rgb(0, 0, 0); font-family: Helvetica; font-style: normal; font-variant-ligatures: normal; font-variant-caps: normal; letter-spacing: normal; orphans: 2; text-align: center; text-indent: 0px; text-transform: none; widows: 2; word-spacing: 0px; -webkit-text-stroke-width: 0px; white-space: normal; text-decoration-thickness: initial; text-decoration-style: initial; text-decoration-color: initial; float: none; font-size: 12px; display: inline !important;&quot;&gt;&lt;font style=&quot;font-size: 12px;&quot;&gt;TutorialContentPage&lt;/font&gt;&lt;/span&gt;" style="text;whiteSpace=wrap;html=1;fontStyle=1;fontSize=12;" vertex="1" parent="1">
          <mxGeometry x="1145" y="161" width="110" height="20" as="geometry" />
        </mxCell>
        <mxCell id="Yf_knB-bpZ2W4WyWqhMS-49" value="" style="endArrow=classic;html=1;rounded=0;entryX=0.08;entryY=0.774;entryDx=0;entryDy=0;entryPerimeter=0;" edge="1" parent="1" target="Yf_knB-bpZ2W4WyWqhMS-25">
          <mxGeometry width="50" height="50" relative="1" as="geometry">
            <mxPoint x="103" y="379.6" as="sourcePoint" />
            <mxPoint x="320" y="379.6" as="targetPoint" />
          </mxGeometry>
        </mxCell>
        <mxCell id="Yf_knB-bpZ2W4WyWqhMS-50" value="&lt;div style=&quot;text-align: center;&quot;&gt;&lt;span style=&quot;font-weight: 400;&quot;&gt;Click the purchase button&lt;/span&gt;&lt;/div&gt;" style="text;whiteSpace=wrap;html=1;fontStyle=1;fontSize=12;" vertex="1" parent="1">
          <mxGeometry x="140" y="359.6" width="150" height="20" as="geometry" />
        </mxCell>
        <mxCell id="Yf_knB-bpZ2W4WyWqhMS-51" value="" style="endArrow=classic;html=1;rounded=0;entryX=-0.378;entryY=0.133;entryDx=0;entryDy=0;entryPerimeter=0;" edge="1" parent="1" target="Yf_knB-bpZ2W4WyWqhMS-54">
          <mxGeometry width="50" height="50" relative="1" as="geometry">
            <mxPoint x="330" y="422" as="sourcePoint" />
            <mxPoint x="1200.6173140914352" y="422" as="targetPoint" />
          </mxGeometry>
        </mxCell>
        <mxCell id="Yf_knB-bpZ2W4WyWqhMS-52" value="&lt;div style=&quot;text-align: center;&quot;&gt;&lt;span style=&quot;font-weight: 400;&quot;&gt;Send the purchase request&lt;/span&gt;&lt;/div&gt;" style="text;whiteSpace=wrap;html=1;fontStyle=1;fontSize=12;" vertex="1" parent="1">
          <mxGeometry x="620" y="402" width="150" height="20" as="geometry" />
        </mxCell>
        <mxCell id="Yf_knB-bpZ2W4WyWqhMS-53" value="" style="endArrow=none;dashed=1;html=1;rounded=0;exitX=0.75;exitY=0;exitDx=0;exitDy=0;" edge="1" parent="1">
          <mxGeometry width="50" height="50" relative="1" as="geometry">
            <mxPoint x="1205.5" y="390" as="sourcePoint" />
            <mxPoint x="1205" y="197" as="targetPoint" />
            <Array as="points">
              <mxPoint x="1205" y="217" />
            </Array>
          </mxGeometry>
        </mxCell>
        <mxCell id="Yf_knB-bpZ2W4WyWqhMS-54" value="" style="rounded=0;whiteSpace=wrap;html=1;" vertex="1" parent="1">
          <mxGeometry x="1201" y="390" width="10" height="260" as="geometry" />
        </mxCell>
        <mxCell id="Yf_knB-bpZ2W4WyWqhMS-57" value="alt confirm&lt;div&gt;purchase&lt;/div&gt;" style="shape=umlFrame;whiteSpace=wrap;html=1;pointerEvents=0;" vertex="1" parent="1">
          <mxGeometry x="80" y="400" width="1730" height="280" as="geometry" />
        </mxCell>
        <mxCell id="Yf_knB-bpZ2W4WyWqhMS-59" value="" style="endArrow=classic;html=1;rounded=0;edgeStyle=orthogonalEdgeStyle;" edge="1" parent="1">
          <mxGeometry width="50" height="50" relative="1" as="geometry">
            <mxPoint x="557.71" y="280.73" as="sourcePoint" />
            <mxPoint x="558" y="299" as="targetPoint" />
            <Array as="points">
              <mxPoint x="580" y="281" />
              <mxPoint x="580" y="299" />
            </Array>
          </mxGeometry>
        </mxCell>
        <mxCell id="Yf_knB-bpZ2W4WyWqhMS-60" value="&lt;div&gt;&lt;span style=&quot;color: rgb(0, 0, 0); font-family: Helvetica; font-style: normal; font-variant-ligatures: normal; font-variant-caps: normal; letter-spacing: normal; orphans: 2; text-align: center; text-indent: 0px; text-transform: none; widows: 2; word-spacing: 0px; -webkit-text-stroke-width: 0px; white-space: normal; text-decoration-thickness: initial; text-decoration-style: initial; text-decoration-color: initial; float: none; font-size: 12px; display: inline !important; font-weight: normal;&quot;&gt;&lt;font style=&quot;font-size: 12px;&quot;&gt;&amp;nbsp; &amp;nbsp; &amp;nbsp; &amp;lt;&amp;lt;boundary&amp;gt;&amp;gt;&lt;/font&gt;&lt;/span&gt;&lt;/div&gt;&lt;span style=&quot;color: rgb(0, 0, 0); font-family: Helvetica; font-style: normal; font-variant-ligatures: normal; font-variant-caps: normal; letter-spacing: normal; orphans: 2; text-align: center; text-indent: 0px; text-transform: none; widows: 2; word-spacing: 0px; -webkit-text-stroke-width: 0px; white-space: normal; text-decoration-thickness: initial; text-decoration-style: initial; text-decoration-color: initial; float: none; font-size: 12px; display: inline !important;&quot;&gt;&lt;font style=&quot;font-size: 12px;&quot;&gt;&amp;nbsp; &amp;nbsp; &amp;nbsp; ChargePage&lt;/font&gt;&lt;/span&gt;" style="text;whiteSpace=wrap;html=1;fontStyle=1;fontSize=12;" vertex="1" parent="1">
          <mxGeometry x="1375" y="163.5" width="110" height="20" as="geometry" />
        </mxCell>
        <mxCell id="Yf_knB-bpZ2W4WyWqhMS-61" value="" style="ellipse;shape=umlControl;whiteSpace=wrap;html=1;" vertex="1" parent="1">
          <mxGeometry x="1628" y="111" width="50" height="55" as="geometry" />
        </mxCell>
        <mxCell id="Yf_knB-bpZ2W4WyWqhMS-62" value="" style="endArrow=none;dashed=1;html=1;rounded=0;exitX=0.5;exitY=0;exitDx=0;exitDy=0;" edge="1" parent="1" source="Yf_knB-bpZ2W4WyWqhMS-63">
          <mxGeometry width="50" height="50" relative="1" as="geometry">
            <mxPoint x="1430" y="440" as="sourcePoint" />
            <mxPoint x="1429.7" y="200" as="targetPoint" />
            <Array as="points">
              <mxPoint x="1429.7" y="220" />
            </Array>
          </mxGeometry>
        </mxCell>
        <mxCell id="Yf_knB-bpZ2W4WyWqhMS-63" value="" style="rounded=0;whiteSpace=wrap;html=1;" vertex="1" parent="1">
          <mxGeometry x="1425" y="419" width="10" height="221" as="geometry" />
        </mxCell>
        <mxCell id="Yf_knB-bpZ2W4WyWqhMS-64" value="" style="endArrow=open;endSize=12;dashed=1;html=1;rounded=0;entryX=1.249;entryY=0.409;entryDx=0;entryDy=0;entryPerimeter=0;" edge="1" parent="1" target="Yf_knB-bpZ2W4WyWqhMS-63">
          <mxGeometry width="160" relative="1" as="geometry">
            <mxPoint x="1648.29" y="510" as="sourcePoint" />
            <mxPoint x="1440" y="510" as="targetPoint" />
          </mxGeometry>
        </mxCell>
        <mxCell id="Yf_knB-bpZ2W4WyWqhMS-65" value="" style="endArrow=classic;html=1;rounded=0;entryX=-0.202;entryY=0.344;entryDx=0;entryDy=0;entryPerimeter=0;" edge="1" parent="1">
          <mxGeometry width="50" height="50" relative="1" as="geometry">
            <mxPoint x="1211.38" y="440" as="sourcePoint" />
            <mxPoint x="1423.9800000000002" y="439.64" as="targetPoint" />
          </mxGeometry>
        </mxCell>
        <mxCell id="Yf_knB-bpZ2W4WyWqhMS-66" value="" style="shape=umlBoundary;whiteSpace=wrap;html=1;" vertex="1" parent="1">
          <mxGeometry x="1400" y="115" width="60" height="50" as="geometry" />
        </mxCell>
        <mxCell id="Yf_knB-bpZ2W4WyWqhMS-67" value="&lt;div&gt;&lt;span style=&quot;color: rgb(0, 0, 0); font-family: Helvetica; font-style: normal; font-variant-ligatures: normal; font-variant-caps: normal; letter-spacing: normal; orphans: 2; text-align: center; text-indent: 0px; text-transform: none; widows: 2; word-spacing: 0px; -webkit-text-stroke-width: 0px; white-space: normal; text-decoration-thickness: initial; text-decoration-style: initial; text-decoration-color: initial; float: none; font-size: 12px; display: inline !important; font-weight: normal;&quot;&gt;&lt;font style=&quot;font-size: 12px;&quot;&gt;&amp;nbsp; &amp;nbsp; &amp;nbsp; &amp;nbsp; &amp;nbsp; &amp;lt;&amp;lt;control&amp;gt;&amp;gt;&lt;/font&gt;&lt;/span&gt;&lt;/div&gt;&lt;span style=&quot;color: rgb(0, 0, 0); font-family: Helvetica; font-style: normal; font-variant-ligatures: normal; font-variant-caps: normal; letter-spacing: normal; orphans: 2; text-align: center; text-indent: 0px; text-transform: none; widows: 2; word-spacing: 0px; -webkit-text-stroke-width: 0px; white-space: normal; text-decoration-thickness: initial; text-decoration-style: initial; text-decoration-color: initial; float: none; font-size: 12px; display: inline !important;&quot;&gt;&lt;font style=&quot;font-size: 12px;&quot;&gt;&amp;nbsp; &amp;nbsp; &amp;nbsp;ChargeController&lt;/font&gt;&lt;/span&gt;" style="text;whiteSpace=wrap;html=1;fontStyle=1;fontSize=12;" vertex="1" parent="1">
          <mxGeometry x="1588" y="162" width="120" height="20" as="geometry" />
        </mxCell>
        <mxCell id="Yf_knB-bpZ2W4WyWqhMS-68" value="&lt;div style=&quot;text-align: center;&quot;&gt;&lt;span style=&quot;font-weight: 400;&quot;&gt;Turn to charge page&amp;nbsp;&lt;/span&gt;&lt;/div&gt;" style="text;whiteSpace=wrap;html=1;fontStyle=1;fontSize=12;" vertex="1" parent="1">
          <mxGeometry x="1255" y="418" width="120" height="20" as="geometry" />
        </mxCell>
        <mxCell id="Yf_knB-bpZ2W4WyWqhMS-73" value="&lt;div style=&quot;text-align: center;&quot;&gt;&lt;span style=&quot;font-weight: 400;&quot;&gt;Get tutorial informaton&lt;/span&gt;&lt;/div&gt;" style="text;whiteSpace=wrap;html=1;fontStyle=1;fontSize=12;" vertex="1" parent="1">
          <mxGeometry x="1680.58" y="460" width="190" height="20" as="geometry" />
        </mxCell>
        <mxCell id="Yf_knB-bpZ2W4WyWqhMS-74" value="" style="endArrow=classic;html=1;rounded=0;edgeStyle=orthogonalEdgeStyle;" edge="1" parent="1">
          <mxGeometry width="50" height="50" relative="1" as="geometry">
            <mxPoint x="1658.29" y="464.73" as="sourcePoint" />
            <mxPoint x="1658.58" y="483" as="targetPoint" />
            <Array as="points">
              <mxPoint x="1680.58" y="465" />
              <mxPoint x="1680.58" y="483" />
            </Array>
          </mxGeometry>
        </mxCell>
        <mxCell id="Yf_knB-bpZ2W4WyWqhMS-75" value="" style="endArrow=classic;html=1;rounded=0;entryX=-0.202;entryY=0.344;entryDx=0;entryDy=0;entryPerimeter=0;" edge="1" parent="1">
          <mxGeometry width="50" height="50" relative="1" as="geometry">
            <mxPoint x="1435" y="472" as="sourcePoint" />
            <mxPoint x="1647.6000000000004" y="471.64" as="targetPoint" />
          </mxGeometry>
        </mxCell>
        <mxCell id="Yf_knB-bpZ2W4WyWqhMS-76" value="&lt;div style=&quot;text-align: center;&quot;&gt;&lt;span style=&quot;font-weight: 400;&quot;&gt;Send transaction request&lt;/span&gt;&lt;/div&gt;" style="text;whiteSpace=wrap;html=1;fontStyle=1;fontSize=12;" vertex="1" parent="1">
          <mxGeometry x="1470" y="450" width="140" height="20" as="geometry" />
        </mxCell>
        <mxCell id="Yf_knB-bpZ2W4WyWqhMS-77" value="" style="endArrow=none;dashed=1;html=1;rounded=0;exitX=0.5;exitY=0;exitDx=0;exitDy=0;" edge="1" parent="1" source="Yf_knB-bpZ2W4WyWqhMS-78">
          <mxGeometry width="50" height="50" relative="1" as="geometry">
            <mxPoint x="1653.06" y="418" as="sourcePoint" />
            <mxPoint x="1652.76" y="199" as="targetPoint" />
            <Array as="points">
              <mxPoint x="1652.76" y="219" />
            </Array>
          </mxGeometry>
        </mxCell>
        <mxCell id="Yf_knB-bpZ2W4WyWqhMS-78" value="" style="rounded=0;whiteSpace=wrap;html=1;" vertex="1" parent="1">
          <mxGeometry x="1648.29" y="460" width="10" height="140" as="geometry" />
        </mxCell>
        <mxCell id="Yf_knB-bpZ2W4WyWqhMS-79" value="&lt;div style=&quot;text-align: center;&quot;&gt;&lt;span style=&quot;font-weight: 400;&quot;&gt;Send transaction success&lt;/span&gt;&lt;/div&gt;" style="text;whiteSpace=wrap;html=1;fontStyle=1;fontSize=12;" vertex="1" parent="1">
          <mxGeometry x="1470" y="488" width="140" height="20" as="geometry" />
        </mxCell>
        <mxCell id="Yf_knB-bpZ2W4WyWqhMS-80" value="" style="endArrow=open;endSize=12;dashed=1;html=1;rounded=0;entryX=1.158;entryY=0.816;entryDx=0;entryDy=0;entryPerimeter=0;" edge="1" parent="1">
          <mxGeometry width="160" relative="1" as="geometry">
            <mxPoint x="1422.29" y="519.05" as="sourcePoint" />
            <mxPoint x="1211" y="519.05" as="targetPoint" />
          </mxGeometry>
        </mxCell>
        <mxCell id="Yf_knB-bpZ2W4WyWqhMS-81" value="&lt;div style=&quot;text-align: center;&quot;&gt;&lt;span style=&quot;font-weight: 400;&quot;&gt;Send tutorial owned info&lt;/span&gt;&lt;/div&gt;" style="text;whiteSpace=wrap;html=1;fontStyle=1;fontSize=12;" vertex="1" parent="1">
          <mxGeometry x="1244" y="497.05" width="140" height="20" as="geometry" />
        </mxCell>
        <mxCell id="Yf_knB-bpZ2W4WyWqhMS-82" value="" style="endArrow=open;endSize=12;dashed=1;html=1;rounded=0;entryX=1.158;entryY=0.816;entryDx=0;entryDy=0;entryPerimeter=0;" edge="1" parent="1">
          <mxGeometry width="160" relative="1" as="geometry">
            <mxPoint x="1200" y="531" as="sourcePoint" />
            <mxPoint x="100" y="526.8" as="targetPoint" />
          </mxGeometry>
        </mxCell>
        <mxCell id="Yf_knB-bpZ2W4WyWqhMS-83" value="&lt;div style=&quot;text-align: center;&quot;&gt;&lt;span style=&quot;font-weight: 400;&quot;&gt;Show more information of the tutorial and&amp;nbsp;&lt;/span&gt;&lt;span style=&quot;background-color: initial; text-align: left; font-weight: 400;&quot;&gt;Open the learning permission&lt;/span&gt;&lt;/div&gt;" style="text;whiteSpace=wrap;html=1;fontStyle=1;fontSize=12;" vertex="1" parent="1">
          <mxGeometry x="414" y="503.05" width="396" height="20" as="geometry" />
        </mxCell>
        <mxCell id="Yf_knB-bpZ2W4WyWqhMS-87" value="" style="endArrow=none;dashed=1;html=1;rounded=0;exitX=-0.002;exitY=0.547;exitDx=0;exitDy=0;exitPerimeter=0;" edge="1" parent="1">
          <mxGeometry width="50" height="50" relative="1" as="geometry">
            <mxPoint x="81.99599999999991" y="562.5200000000001" as="sourcePoint" />
            <mxPoint x="1810" y="563" as="targetPoint" />
          </mxGeometry>
        </mxCell>
        <mxCell id="Yf_knB-bpZ2W4WyWqhMS-88" value="&lt;div style=&quot;text-align: center;&quot;&gt;&lt;span style=&quot;font-weight: 400;&quot;&gt;[else reject to purchase]&lt;/span&gt;&lt;/div&gt;" style="text;whiteSpace=wrap;html=1;fontStyle=1;fontSize=12;" vertex="1" parent="1">
          <mxGeometry x="88" y="565" width="190" height="20" as="geometry" />
        </mxCell>
        <mxCell id="Yf_knB-bpZ2W4WyWqhMS-89" value="" style="endArrow=open;endSize=12;dashed=1;html=1;rounded=0;entryX=1.249;entryY=0.409;entryDx=0;entryDy=0;entryPerimeter=0;" edge="1" parent="1">
          <mxGeometry width="160" relative="1" as="geometry">
            <mxPoint x="1646.29" y="585" as="sourcePoint" />
            <mxPoint x="1435" y="584" as="targetPoint" />
          </mxGeometry>
        </mxCell>
        <mxCell id="Yf_knB-bpZ2W4WyWqhMS-90" value="&lt;div style=&quot;text-align: center;&quot;&gt;&lt;span style=&quot;font-weight: 400;&quot;&gt;Send transaction failed&lt;/span&gt;&lt;/div&gt;" style="text;whiteSpace=wrap;html=1;fontStyle=1;fontSize=12;" vertex="1" parent="1">
          <mxGeometry x="1470" y="563" width="136" height="20" as="geometry" />
        </mxCell>
        <mxCell id="Yf_knB-bpZ2W4WyWqhMS-93" value="" style="endArrow=open;endSize=12;dashed=1;html=1;rounded=0;entryX=1.249;entryY=0.409;entryDx=0;entryDy=0;entryPerimeter=0;" edge="1" parent="1">
          <mxGeometry width="160" relative="1" as="geometry">
            <mxPoint x="1425" y="612" as="sourcePoint" />
            <mxPoint x="1213.71" y="611" as="targetPoint" />
          </mxGeometry>
        </mxCell>
        <mxCell id="Yf_knB-bpZ2W4WyWqhMS-94" value="&lt;div style=&quot;text-align: center;&quot;&gt;&lt;span style=&quot;font-weight: 400;&quot;&gt;Turn to content page&lt;/span&gt;&lt;/div&gt;" style="text;whiteSpace=wrap;html=1;fontStyle=1;fontSize=12;" vertex="1" parent="1">
          <mxGeometry x="1248.71" y="590" width="136" height="20" as="geometry" />
        </mxCell>
        <mxCell id="Yf_knB-bpZ2W4WyWqhMS-95" value="" style="endArrow=open;endSize=12;dashed=1;html=1;rounded=0;entryX=1.158;entryY=0.816;entryDx=0;entryDy=0;entryPerimeter=0;" edge="1" parent="1">
          <mxGeometry width="160" relative="1" as="geometry">
            <mxPoint x="1199" y="624" as="sourcePoint" />
            <mxPoint x="99" y="619.8" as="targetPoint" />
          </mxGeometry>
        </mxCell>
        <mxCell id="Yf_knB-bpZ2W4WyWqhMS-96" value="&lt;div style=&quot;text-align: center;&quot;&gt;&lt;span style=&quot;font-weight: 400;&quot;&gt;Tell the user that they have not yet purchased the tutorial and cannot learn the content of the tutorial&lt;/span&gt;&lt;/div&gt;" style="text;whiteSpace=wrap;html=1;fontStyle=1;fontSize=12;" vertex="1" parent="1">
          <mxGeometry x="250" y="596.05" width="630" height="20" as="geometry" />
        </mxCell>
        <mxCell id="Yf_knB-bpZ2W4WyWqhMS-97" value="" style="endArrow=none;dashed=1;html=1;rounded=0;entryX=0.5;entryY=1;entryDx=0;entryDy=0;" edge="1" parent="1" target="Yf_knB-bpZ2W4WyWqhMS-25">
          <mxGeometry width="50" height="50" relative="1" as="geometry">
            <mxPoint x="325" y="700" as="sourcePoint" />
            <mxPoint x="260" y="290" as="targetPoint" />
          </mxGeometry>
        </mxCell>
        <mxCell id="Yf_knB-bpZ2W4WyWqhMS-98" value="" style="endArrow=none;dashed=1;html=1;rounded=0;entryX=0.5;entryY=1;entryDx=0;entryDy=0;" edge="1" parent="1">
          <mxGeometry width="50" height="50" relative="1" as="geometry">
            <mxPoint x="553" y="700" as="sourcePoint" />
            <mxPoint x="553.17" y="360" as="targetPoint" />
          </mxGeometry>
        </mxCell>
        <mxCell id="Yf_knB-bpZ2W4WyWqhMS-99" value="" style="endArrow=none;dashed=1;html=1;rounded=0;entryX=0.5;entryY=1;entryDx=0;entryDy=0;" edge="1" parent="1">
          <mxGeometry width="50" height="50" relative="1" as="geometry">
            <mxPoint x="774" y="700" as="sourcePoint" />
            <mxPoint x="773.6" y="385" as="targetPoint" />
          </mxGeometry>
        </mxCell>
        <mxCell id="Yf_knB-bpZ2W4WyWqhMS-100" value="" style="endArrow=none;dashed=1;html=1;rounded=0;entryX=0.5;entryY=1;entryDx=0;entryDy=0;" edge="1" parent="1">
          <mxGeometry width="50" height="50" relative="1" as="geometry">
            <mxPoint x="998" y="700" as="sourcePoint" />
            <mxPoint x="997.6" y="410" as="targetPoint" />
          </mxGeometry>
        </mxCell>
        <mxCell id="Yf_knB-bpZ2W4WyWqhMS-101" value="" style="endArrow=none;dashed=1;html=1;rounded=0;entryX=0.5;entryY=1;entryDx=0;entryDy=0;" edge="1" parent="1">
          <mxGeometry width="50" height="50" relative="1" as="geometry">
            <mxPoint x="1206" y="701" as="sourcePoint" />
            <mxPoint x="1206.44" y="651" as="targetPoint" />
          </mxGeometry>
        </mxCell>
        <mxCell id="Yf_knB-bpZ2W4WyWqhMS-102" value="" style="endArrow=none;dashed=1;html=1;rounded=0;entryX=0.5;entryY=1;entryDx=0;entryDy=0;" edge="1" parent="1">
          <mxGeometry width="50" height="50" relative="1" as="geometry">
            <mxPoint x="1430" y="700" as="sourcePoint" />
            <mxPoint x="1430.22" y="640" as="targetPoint" />
          </mxGeometry>
        </mxCell>
        <mxCell id="Yf_knB-bpZ2W4WyWqhMS-103" value="" style="endArrow=none;dashed=1;html=1;rounded=0;entryX=0.5;entryY=1;entryDx=0;entryDy=0;" edge="1" parent="1">
          <mxGeometry width="50" height="50" relative="1" as="geometry">
            <mxPoint x="1654" y="700" as="sourcePoint" />
            <mxPoint x="1653.51" y="600" as="targetPoint" />
          </mxGeometry>
        </mxCell>
        <mxCell id="Yf_knB-bpZ2W4WyWqhMS-106" value="&lt;font style=&quot;font-size: 11px;&quot;&gt;TutorialView&lt;/font&gt;&lt;div style=&quot;font-size: 11px;&quot;&gt;&lt;font style=&quot;font-size: 11px;&quot;&gt;Interaction&lt;/font&gt;&lt;/div&gt;" style="shape=umlFrame;whiteSpace=wrap;html=1;pointerEvents=0;" vertex="1" parent="1">
          <mxGeometry x="0.58" y="62" width="1870" height="700" as="geometry" />
        </mxCell>
        <mxCell id="Yf_knB-bpZ2W4WyWqhMS-107" value="par transaction" style="shape=umlFrame;whiteSpace=wrap;html=1;pointerEvents=0;width=70;height=30;" vertex="1" parent="1">
          <mxGeometry x="1370" y="475" width="280" height="155" as="geometry" />
        </mxCell>
      </root>
    </mxGraphModel>
  </diagram>
</mxfile>
